<svg width="49" height="49" viewBox="0 0 49 49" fill="none" xmlns="http://www.w3.org/2000/svg">
<path fill-rule="evenodd" clip-rule="evenodd" d="M24.75 0.5C11.4952 0.5 0.75 11.2452 0.75 24.5C0.75 37.7548 11.4952 48.5 24.75 48.5C38.0048 48.5 48.75 37.7548 48.75 24.5C48.75 11.2452 38.0048 0.5 24.75 0.5ZM15.6551 10.9H34.6449C36.2462 10.9 37.55 12.188 37.55 13.784V38.9L34.5031 36.24L32.7884 34.672L30.9745 33.006L31.7255 35.596H15.6551C14.0538 35.596 12.75 34.308 12.75 32.712V13.784C12.75 12.188 14.0538 10.9 15.6551 10.9Z" fill="black"/>
<path fill-rule="evenodd" clip-rule="evenodd" d="M29.1747 29.1839C29.1747 29.1839 28.6645 28.5819 28.2394 28.0499C30.0958 27.5319 30.8044 26.3839 30.8044 26.3839C30.2234 26.7619 29.6707 27.0279 29.1747 27.2099C28.4661 27.5039 27.7859 27.6999 27.1198 27.8119C25.7594 28.0639 24.5123 27.9939 23.4494 27.7979C22.6417 27.6439 21.9473 27.4199 21.3662 27.1959C21.0403 27.0699 20.686 26.9159 20.3317 26.7199C20.3105 26.7059 20.2892 26.6954 20.2679 26.6849C20.2467 26.6744 20.2254 26.6639 20.2042 26.6499C20.1758 26.6359 20.1617 26.6219 20.1475 26.6079C19.8924 26.4679 19.7507 26.3699 19.7507 26.3699C19.7507 26.3699 20.4309 27.4899 22.2307 28.0219C21.8055 28.5539 21.2812 29.1839 21.2812 29.1839C18.1493 29.0859 16.9589 27.0559 16.9589 27.0559C16.9589 22.5479 18.9996 18.8939 18.9996 18.8939C21.0403 17.3819 22.9818 17.4239 22.9818 17.4239L23.1235 17.5919C20.5726 18.3199 19.3964 19.4259 19.3964 19.4259C19.3964 19.4259 19.7082 19.2579 20.2325 19.0199C21.7489 18.3619 22.9534 18.1799 23.4494 18.1379L23.4812 18.1326C23.5527 18.1206 23.6161 18.1099 23.6903 18.1099C24.5548 17.9979 25.5326 17.9699 26.553 18.0819C27.8993 18.2359 29.3447 18.6279 30.8186 19.4259C30.8186 19.4259 29.699 18.3759 27.2899 17.6479L27.4883 17.4239C27.4883 17.4239 29.4298 17.3819 31.4705 18.8939C31.4705 18.8939 33.5111 22.5479 33.5111 27.0559C33.5111 27.0559 32.3066 29.0859 29.1747 29.1839ZM22.9841 22.8999C22.1827 22.8999 21.55 23.6207 21.55 24.4999C21.55 25.3792 22.1968 26.0999 22.9841 26.0999C23.7855 26.0999 24.4182 25.3792 24.4182 24.4999C24.4323 23.6207 23.7855 22.8999 22.9841 22.8999ZM26.6818 24.4999C26.6818 23.6207 27.3145 22.8999 28.1159 22.8999C28.9173 22.8999 29.55 23.6207 29.55 24.4999C29.55 25.3792 28.9173 26.0999 28.1159 26.0999C27.3286 26.0999 26.6818 25.3792 26.6818 24.4999Z" fill="black"/>
</svg>
