<svg width="49" height="48" viewBox="0 0 49 48" fill="none" xmlns="http://www.w3.org/2000/svg">
<path d="M24.7932 0.179932C11.5647 0.179932 0.837669 11.0878 0.837669 24.5445C0.837669 35.3096 7.70167 44.4426 17.2199 47.6643C18.4172 47.8899 18.8567 47.1358 18.8567 46.4922C18.8567 45.9112 18.8345 43.9919 18.8242 41.956C12.1597 43.4299 10.7534 39.0812 10.7534 39.0812C9.66372 36.265 8.0936 35.5161 8.0936 35.5161C5.92012 34.0039 8.25744 34.035 8.25744 34.035C10.663 34.2065 11.9296 36.5458 11.9296 36.5458C14.0662 40.2707 17.5337 39.1938 18.9007 38.5712C19.1158 36.9969 19.7366 35.9212 20.4217 35.3132C15.1008 34.6971 9.50742 32.6079 9.50742 23.2719C9.50742 20.6118 10.4432 18.4383 11.9757 16.732C11.7269 16.1179 10.907 13.6402 12.2077 10.2841C12.2077 10.2841 14.2194 9.62928 18.7972 12.7816C20.7081 12.2418 22.7574 11.971 24.7932 11.9618C26.8291 11.971 28.88 12.2418 30.7944 12.7816C35.3667 9.62928 37.3756 10.2841 37.3756 10.2841C38.6795 13.6402 37.8592 16.1179 37.6104 16.732C39.1464 18.4383 40.0759 20.6118 40.0759 23.2719C40.0759 32.6301 34.4718 34.6906 29.1374 35.2938C29.9967 36.0499 30.7623 37.5327 30.7623 39.8059C30.7623 43.0655 30.7345 45.6893 30.7345 46.4922C30.7345 47.1406 31.1657 47.9003 32.38 47.6611C41.8931 44.4357 48.7484 35.3059 48.7484 24.5445C48.7484 11.0878 38.023 0.179932 24.7932 0.179932Z" fill="black"/>
<path d="M9.91086 35.1623C9.8581 35.2838 9.67086 35.3197 9.50028 35.2366C9.32653 35.1571 9.22894 34.9921 9.28527 34.8706C9.33684 34.746 9.52448 34.7117 9.69784 34.7944C9.87198 34.8743 9.97116 35.0409 9.91086 35.1623Z" fill="black"/>
<path d="M10.8812 36.263C10.7669 36.3707 10.5436 36.3207 10.392 36.1504C10.2354 35.9806 10.206 35.7534 10.3218 35.6441C10.4397 35.5363 10.6562 35.5868 10.8133 35.7566C10.97 35.9285 11.0006 36.1541 10.8812 36.263Z" fill="black"/>
<path d="M11.8257 37.6662C11.6789 37.7699 11.4389 37.6726 11.2906 37.456C11.1438 37.2393 11.1438 36.9795 11.2937 36.8754C11.4425 36.7713 11.6789 36.8649 11.8293 37.0799C11.9757 37.2998 11.9757 37.5601 11.8257 37.6662Z" fill="black"/>
<path d="M13.1197 39.0219C12.9884 39.1692 12.7087 39.1297 12.504 38.9287C12.2946 38.7322 12.2363 38.4534 12.368 38.3062C12.5009 38.1585 12.7821 38.2001 12.9884 38.3994C13.1963 38.5955 13.2598 38.8763 13.1197 39.0219Z" fill="black"/>
<path d="M14.9048 39.8091C14.8469 40 14.5776 40.0867 14.3062 40.0056C14.0353 39.9221 13.858 39.6986 13.9127 39.5057C13.969 39.3137 14.2396 39.2233 14.5129 39.31C14.7835 39.3932 14.9612 39.6151 14.9048 39.8091Z" fill="black"/>
<path d="M16.8653 39.9551C16.872 40.156 16.642 40.3227 16.3571 40.3259C16.0707 40.3327 15.8391 40.1701 15.8359 39.9724C15.8359 39.7695 16.0608 39.6045 16.3472 39.5996C16.632 39.594 16.8653 39.7554 16.8653 39.9551Z" fill="black"/>
<path d="M18.6897 39.6392C18.7238 39.8353 18.5259 40.0366 18.243 40.0899C17.9649 40.1419 17.7075 40.0209 17.6722 39.8264C17.6377 39.6255 17.8392 39.4241 18.1169 39.3721C18.4001 39.3221 18.6536 39.4399 18.6897 39.6392Z" fill="black"/>
</svg>
