<svg width="48" height="49" viewBox="0 0 48 49" fill="none" xmlns="http://www.w3.org/2000/svg">
<path fill-rule="evenodd" clip-rule="evenodd" d="M24 0.5C10.7452 0.5 0 11.2452 0 24.5C0 37.7548 10.7452 48.5 24 48.5C37.2548 48.5 48 37.7548 48 24.5C48 11.2452 37.2548 0.5 24 0.5ZM18.7233 11.7773C20.0886 11.7152 20.5249 11.7 24.0012 11.7H23.9972C27.4746 11.7 27.9092 11.7152 29.2746 11.7773C30.6373 11.8397 31.5679 12.0555 32.384 12.372C33.2266 12.6987 33.9386 13.136 34.6506 13.848C35.3627 14.5595 35.8 15.2736 36.128 16.1155C36.4427 16.9294 36.6587 17.8595 36.7227 19.2222C36.784 20.5876 36.8 21.0238 36.8 24.5001C36.8 27.9764 36.784 28.4116 36.7227 29.777C36.6587 31.1391 36.4427 32.0695 36.128 32.8837C35.8 33.7253 35.3627 34.4394 34.6506 35.1509C33.9394 35.8629 33.2264 36.3013 32.3848 36.6283C31.5703 36.9448 30.6391 37.1605 29.2765 37.2229C27.9111 37.2851 27.4762 37.3003 23.9996 37.3003C20.5236 37.3003 20.0876 37.2851 18.7222 37.2229C17.3598 37.1605 16.4294 36.9448 15.615 36.6283C14.7736 36.3013 14.0595 35.8629 13.3483 35.1509C12.6365 34.4394 12.1992 33.7253 11.872 32.8834C11.5557 32.0695 11.34 31.1394 11.2773 29.7767C11.2155 28.4114 11.2 27.9764 11.2 24.5001C11.2 21.0238 11.216 20.5873 11.2771 19.2219C11.3384 17.8598 11.5544 16.9294 11.8717 16.1152C12.1997 15.2736 12.6371 14.5595 13.3491 13.848C14.0606 13.1363 14.7747 12.6989 15.6166 12.372C16.4305 12.0555 17.3606 11.8397 18.7233 11.7773Z" fill="black"/>
<path fill-rule="evenodd" clip-rule="evenodd" d="M22.8529 14.0067C23.0759 14.0064 23.3157 14.0065 23.5746 14.0066L24.0012 14.0067C27.4188 14.0067 27.8239 14.019 29.1735 14.0803C30.4215 14.1374 31.0989 14.3459 31.5501 14.5211C32.1474 14.7531 32.5733 15.0305 33.021 15.4785C33.469 15.9265 33.7464 16.3532 33.9789 16.9505C34.1541 17.4012 34.3629 18.0785 34.4197 19.3265C34.481 20.6759 34.4944 21.0812 34.4944 24.4972C34.4944 27.9133 34.481 28.3186 34.4197 29.668C34.3626 30.916 34.1541 31.5933 33.9789 32.044C33.7469 32.6413 33.469 33.0667 33.021 33.5144C32.573 33.9624 32.1477 34.2398 31.5501 34.4718C31.0994 34.6478 30.4215 34.8558 29.1735 34.9128C27.8242 34.9742 27.4188 34.9875 24.0012 34.9875C20.5833 34.9875 20.1782 34.9742 18.8289 34.9128C17.5809 34.8552 16.9035 34.6467 16.452 34.4715C15.8547 34.2395 15.428 33.9621 14.98 33.5141C14.532 33.0661 14.2547 32.6405 14.0222 32.0429C13.847 31.5923 13.6382 30.9149 13.5814 29.6669C13.52 28.3176 13.5078 27.9122 13.5078 24.494C13.5078 21.0759 13.52 20.6727 13.5814 19.3233C13.6384 18.0753 13.847 17.398 14.0222 16.9468C14.2542 16.3494 14.532 15.9228 14.98 15.4748C15.428 15.0268 15.8547 14.7494 16.452 14.5169C16.9033 14.3409 17.5809 14.1329 18.8289 14.0755C20.0097 14.0222 20.4673 14.0062 22.8529 14.0035V14.0067ZM30.8338 16.1321C29.9858 16.1321 29.2978 16.8193 29.2978 17.6676C29.2978 18.5156 29.9858 19.2036 30.8338 19.2036C31.6818 19.2036 32.3698 18.5156 32.3698 17.6676C32.3698 16.8196 31.6818 16.1316 30.8338 16.1316V16.1321ZM17.4278 24.5002C17.4278 20.8701 20.3709 17.9269 24.0009 17.9268C27.6311 17.9268 30.5735 20.87 30.5735 24.5002C30.5735 28.1304 27.6314 31.0723 24.0012 31.0723C20.371 31.0723 17.4278 28.1304 17.4278 24.5002Z" fill="black"/>
<path d="M24.0012 20.2334C26.3575 20.2334 28.2679 22.1436 28.2679 24.5001C28.2679 26.8564 26.3575 28.7668 24.0012 28.7668C21.6447 28.7668 19.7345 26.8564 19.7345 24.5001C19.7345 22.1436 21.6447 20.2334 24.0012 20.2334Z" fill="black"/>
</svg>
