<svg width="49" height="48" viewBox="0 0 49 48" fill="none" xmlns="http://www.w3.org/2000/svg">
<path d="M24.2697 0C11.0045 0 0.25 10.7368 0.25 23.9803C0.25 34.1447 6.57618 42.8289 15.5119 46.3224C15.2944 44.4276 15.1165 41.5066 15.591 39.4342C16.0259 37.5592 18.3982 27.5132 18.3982 27.5132C18.3982 27.5132 17.6865 26.0724 17.6865 23.9605C17.6865 20.625 19.6239 18.1382 22.0358 18.1382C24.0918 18.1382 25.0803 19.6776 25.0803 21.5132C25.0803 23.5658 23.7755 26.6447 23.0836 29.5066C22.5102 31.8947 24.2895 33.8487 26.642 33.8487C30.9122 33.8487 34.1939 29.3487 34.1939 22.875C34.1939 17.1316 30.0621 13.125 24.1511 13.125C17.3109 13.125 13.2977 18.2368 13.2977 23.5263C13.2977 25.5789 14.0885 27.7895 15.077 28.9934C15.2747 29.2303 15.2944 29.4474 15.2351 29.6842C15.0572 30.4342 14.6421 32.0724 14.563 32.4079C14.4641 32.8421 14.2071 32.9408 13.7524 32.7237C10.7475 31.3224 8.86942 26.9605 8.86942 23.4276C8.86942 15.8684 14.3653 8.92105 24.7442 8.92105C33.0671 8.92105 39.5514 14.8421 39.5514 22.7763C39.5514 31.0461 34.3323 37.6974 27.0967 37.6974C24.6651 37.6974 22.3719 36.4342 21.6009 34.9342C21.6009 34.9342 20.3949 39.5132 20.0984 40.6382C19.5646 42.7303 18.1017 45.3355 17.1132 46.9342C19.3669 47.625 21.7392 48 24.2302 48C37.4954 48 48.2499 37.2632 48.2499 24.0197C48.2894 10.7368 37.5349 0 24.2697 0Z" fill="black"/>
</svg>
