<svg width="49" height="48" viewBox="0 0 49 48" fill="none" xmlns="http://www.w3.org/2000/svg">
<path fill-rule="evenodd" clip-rule="evenodd" d="M24.25 0C10.9952 0 0.25 10.7452 0.25 24C0.25 37.2548 10.9952 48 24.25 48C37.5048 48 48.25 37.2548 48.25 24C48.25 10.7452 37.5048 0 24.25 0ZM24.495 12H24.4961C25.0652 12 26.2022 12.0797 27.4219 12.6133C28.1228 12.9202 28.753 13.3355 29.2956 13.8477C29.9425 14.459 30.4693 15.213 30.8616 16.0897C31.4339 17.3697 31.2976 19.5259 31.188 21.2583L31.1835 21.3316C31.1728 21.5028 31.1625 21.667 31.1531 21.8268C31.2275 21.8606 31.3423 21.896 31.5061 21.9043C31.814 21.8898 32.1726 21.7876 32.573 21.6008C32.76 21.5138 32.9576 21.4955 33.091 21.4955C33.287 21.4955 33.4795 21.5322 33.6483 21.6018C34.148 21.7801 34.4621 22.1442 34.4701 22.5539C34.4733 22.7233 34.4221 22.982 34.1591 23.2521C33.9389 23.4787 33.6051 23.6782 33.1381 23.8621C33.0303 23.9046 32.9009 23.9456 32.7636 23.9887C32.2892 24.1389 31.5722 24.3658 31.3855 24.8045C31.2907 25.0275 31.3311 25.3201 31.506 25.6742C31.5109 25.6837 31.5155 25.6934 31.5196 25.7032C31.5834 25.8522 33.1251 29.3585 36.5475 29.9209C36.8501 29.9703 37.0663 30.2395 37.049 30.5443C37.0442 30.6341 37.0226 30.7224 36.9857 30.8075C36.8627 31.0915 36.5796 31.3335 36.1198 31.5461C35.5565 31.8069 34.7145 32.0259 33.616 32.1978C33.5609 32.3035 33.5017 32.5729 33.4643 32.7427L33.4637 32.7456C33.4209 32.9412 33.3775 33.1344 33.3167 33.3401C33.2252 33.6525 32.9855 33.831 32.6593 33.831H32.6443L32.6299 33.8308C32.482 33.8308 32.2893 33.8074 32.0413 33.7587C31.6613 33.6848 31.2357 33.6165 30.6982 33.6165C30.3861 33.6165 30.0628 33.6439 29.7376 33.6978C29.1107 33.8018 28.5706 34.182 27.945 34.6224L27.9445 34.6228L27.943 34.6241L27.9424 34.6245C27.0278 35.2694 25.9915 36 24.4076 36C24.3391 36 24.2742 35.9981 24.2219 35.9956C24.1791 35.9986 24.1358 36 24.0926 36C22.5088 36 21.4721 35.2694 20.5563 34.6239C19.9306 34.1828 19.3899 33.8019 18.7626 33.6978C18.4372 33.6438 18.1139 33.6165 17.8019 33.6165C17.2393 33.6165 16.7885 33.7044 16.4588 33.7689L16.4512 33.7704C16.2293 33.8133 16.0374 33.8504 15.8703 33.8504C15.4242 33.8504 15.2506 33.5784 15.1837 33.3508C15.1217 33.1407 15.0781 32.9429 15.0364 32.7505L15.0341 32.7401C14.9943 32.5595 14.9379 32.3032 14.8835 32.2C13.7857 32.0284 12.9434 31.8089 12.3802 31.5481C11.9193 31.3344 11.6358 31.0922 11.5135 30.807L11.5127 30.8055C11.4768 30.7206 11.4561 30.6329 11.4509 30.5449C11.4341 30.2396 11.65 29.971 11.9524 29.9215C12.7225 29.795 13.4574 29.5089 14.1366 29.0712C14.6931 28.7126 15.2168 28.2509 15.6922 27.6984C16.5289 26.7268 16.9367 25.8056 16.9805 25.7038C16.9841 25.6952 16.988 25.687 16.992 25.6786L16.9938 25.6748C17.1688 25.3207 17.2096 25.0278 17.1147 24.8052C16.9279 24.3666 16.2118 24.1397 15.7377 23.9895L15.7362 23.989L15.7344 23.9884C15.5985 23.9454 15.4701 23.9049 15.3619 23.8624C14.9478 23.6992 14.627 23.5157 14.4086 23.3167C14.0115 22.9552 14.0099 22.5988 14.0442 22.4185C14.0964 22.1459 14.2884 21.9 14.5855 21.726C14.8217 21.5876 15.094 21.5118 15.3523 21.5118C15.513 21.5118 15.6587 21.5417 15.7863 21.601C16.2202 21.8037 16.6039 21.9066 16.9266 21.9066C17.1272 21.9066 17.2632 21.866 17.3471 21.8276C17.337 21.6571 17.326 21.4826 17.3154 21.3137L17.312 21.2599L17.3116 21.2572L17.3115 21.2565C17.2025 19.5252 17.0668 17.3712 17.6388 16.0922C18.0294 15.2186 18.5543 14.4666 19.1987 13.8566C19.7391 13.3446 20.3672 12.9294 21.0656 12.6222C22.287 12.0847 23.424 12.0046 23.9923 12.0046L24.4324 12.0003C24.4522 12 24.4729 12 24.495 12Z" fill="black"/>
</svg>
