<svg width="49" height="48" viewBox="0 0 49 48" fill="none" xmlns="http://www.w3.org/2000/svg">
<path fill-rule="evenodd" clip-rule="evenodd" d="M24.75 0C11.4952 0 0.75 10.7452 0.75 24C0.75 37.2548 11.4952 48 24.75 48C38.0048 48 48.75 37.2548 48.75 24C48.75 10.7452 38.0048 0 24.75 0ZM24.0816 20.338L24.0312 19.5075C23.8801 17.3551 25.2063 15.3891 27.3048 14.6265C28.077 14.3553 29.3864 14.3214 30.2426 14.5587C30.5783 14.6604 31.2163 14.9993 31.6695 15.3044L32.4921 15.8637L33.3986 15.5756C33.9023 15.423 34.5738 15.1688 34.8759 14.9993C35.1613 14.8468 35.4131 14.762 35.4131 14.8129C35.4131 15.101 34.792 16.084 34.2716 16.6263C33.5665 17.389 33.768 17.4568 35.1949 16.9483C36.0511 16.6602 36.0678 16.6602 35.9 16.9822C35.7992 17.1517 35.2788 17.7449 34.7248 18.2872C33.7847 19.2194 33.7344 19.3211 33.7344 20.1007C33.7344 21.304 33.1636 23.8123 32.5928 25.1851C31.5352 27.7612 29.2689 30.422 27.0026 31.7609C23.813 33.6422 19.5657 34.1167 15.99 33.0151C14.7981 32.6422 12.75 31.6931 12.75 31.5237C12.75 31.4728 13.3711 31.405 14.1266 31.3881C15.7046 31.3542 17.2826 30.9135 18.6256 30.1339L19.5322 29.5916L18.4913 29.2357C17.014 28.7272 15.6878 27.5578 15.3521 26.4562C15.2513 26.1003 15.2849 26.0833 16.225 26.0833L17.1987 26.0664L16.3761 25.6766C15.4024 25.1851 14.5127 24.3546 14.0762 23.5072C13.7572 22.8971 13.3544 21.3548 13.4719 21.2362C13.5054 21.1854 13.858 21.287 14.2609 21.4226C15.4192 21.8463 15.5703 21.7446 14.8988 21.0328C13.6397 19.7448 13.2536 17.8296 13.858 16.0162L14.1434 15.2027L15.2513 16.3043C17.5177 18.5245 20.1869 19.8465 23.2422 20.2363L24.0816 20.338Z" fill="black"/>
</svg>
