<svg width="756" height="707" viewBox="0 0 756 707" fill="none" xmlns="http://www.w3.org/2000/svg">
<g filter="url(#filter0_d_1_39)">
<path fill-rule="evenodd" clip-rule="evenodd" d="M639.216 -195.534C755.846 -165.677 871.695 -102.266 927.078 -9.9376C978.286 75.4305 912.072 166.972 912.15 259.469C912.213 333.832 955.661 409.064 927.49 477.724C896.279 553.79 834.53 619.552 749.6 655.638C660.649 693.432 548.452 717.187 452.271 679.636C359.049 643.241 351.043 533.434 277.982 471.509C198.044 403.755 34.9505 396.691 11.2103 305.801C-12.0463 216.763 135.358 174.4 179.848 95.8037C229.13 8.74094 192.224 -117.041 283.231 -174.759C377.517 -234.556 519.283 -226.236 639.216 -195.534Z" fill="#FDC435"/>
</g>
<defs>
<filter id="filter0_d_1_39" x="0.7388" y="-219.246" width="945.77" height="925.811" filterUnits="userSpaceOnUse" color-interpolation-filters="sRGB">
<feFlood flood-opacity="0" result="BackgroundImageFix"/>
<feColorMatrix in="SourceAlpha" type="matrix" values="0 0 0 0 0 0 0 0 0 0 0 0 0 0 0 0 0 0 127 0" result="hardAlpha"/>
<feOffset dx="-4" dy="4"/>
<feGaussianBlur stdDeviation="2"/>
<feComposite in2="hardAlpha" operator="out"/>
<feColorMatrix type="matrix" values="0 0 0 0 0 0 0 0 0 0 0 0 0 0 0 0 0 0 0.25 0"/>
<feBlend mode="normal" in2="BackgroundImageFix" result="effect1_dropShadow_1_39"/>
<feBlend mode="normal" in="SourceGraphic" in2="effect1_dropShadow_1_39" result="shape"/>
</filter>
</defs>
</svg>
